<svg xmlns="http://www.w3.org/2000/svg" width="774" height="116" viewBox="0 0 774 116" font-family="-apple-system, BlinkMacSystemFont, 'Segoe UI', Helvetica, Arial, sans-serif" role="img" aria-label="1279 GitHub contributions in the last year">
<text x="30" y="12" fill="#57606a" font-size="10">Jun</text>
<text x="72" y="12" fill="#57606a" font-size="10">Jul</text>
<text x="128" y="12" fill="#57606a" font-size="10">Aug</text>
<text x="198" y="12" fill="#57606a" font-size="10">Sep</text>
<text x="254" y="12" fill="#57606a" font-size="10">Oct</text>
<text x="310" y="12" fill="#57606a" font-size="10">Nov</text>
<text x="380" y="12" fill="#57606a" font-size="10">Dec</text>
<text x="436" y="12" fill="#57606a" font-size="10">Jan</text>
<text x="492" y="12" fill="#57606a" font-size="10">Feb</text>
<text x="548" y="12" fill="#57606a" font-size="10">Mar</text>
<text x="618" y="12" fill="#57606a" font-size="10">Apr</text>
<text x="674" y="12" fill="#57606a" font-size="10">May</text>
<text x="744" y="12" fill="#57606a" font-size="10">Jun</text>
<text x="24" y="41" fill="#57606a" font-size="10" text-anchor="end">Mon</text><text x="24" y="69" fill="#57606a" font-size="10" text-anchor="end">Wed</text><text x="24" y="97" fill="#57606a" font-size="10" text-anchor="end">Fri</text>
<rect x="30" y="18" width="11" height="11" rx="2" ry="2" fill="#ebedf0"><title>2025-06-15: 0</title></rect>
<rect x="30" y="32" width="11" height="11" rx="2" ry="2" fill="#ebedf0"><title>2025-06-16: 0</title></rect>
<rect x="30" y="46" width="11" height="11" rx="2" ry="2" fill="#9be9a8"><title>2025-06-17: 1</title></rect>
<rect x="30" y="60" width="11" height="11" rx="2" ry="2" fill="#9be9a8"><title>2025-06-18: 6</title></rect>
<rect x="30" y="74" width="11" height="11" rx="2" ry="2" fill="#ebedf0"><title>2025-06-19: 0</title></rect>
<rect x="30" y="88" width="11" height="11" rx="2" ry="2" fill="#ebedf0"><title>2025-06-20: 0</title></rect>
<rect x="30" y="102" width="11" height="11" rx="2" ry="2" fill="#ebedf0"><title>2025-06-21: 0</title></rect>
<rect x="44" y="18" width="11" height="11" rx="2" ry="2" fill="#ebedf0"><title>2025-06-22: 0</title></rect>
<rect x="44" y="32" width="11" height="11" rx="2" ry="2" fill="#ebedf0"><title>2025-06-23: 0</title></rect>
<rect x="44" y="46" width="11" height="11" rx="2" ry="2" fill="#ebedf0"><title>2025-06-24: 0</title></rect>
<rect x="44" y="60" width="11" height="11" rx="2" ry="2" fill="#ebedf0"><title>2025-06-25: 0</title></rect>
<rect x="44" y="74" width="11" height="11" rx="2" ry="2" fill="#ebedf0"><title>2025-06-26: 0</title></rect>
<rect x="44" y="88" width="11" height="11" rx="2" ry="2" fill="#9be9a8"><title>2025-06-27: 1</title></rect>
<rect x="44" y="102" width="11" height="11" rx="2" ry="2" fill="#ebedf0"><title>2025-06-28: 0</title></rect>
<rect x="58" y="18" width="11" height="11" rx="2" ry="2" fill="#ebedf0"><title>2025-06-29: 0</title></rect>
<rect x="58" y="32" width="11" height="11" rx="2" ry="2" fill="#ebedf0"><title>2025-06-30: 0</title></rect>
<rect x="58" y="46" width="11" height="11" rx="2" ry="2" fill="#ebedf0"><title>2025-07-01: 0</title></rect>
<rect x="58" y="60" width="11" height="11" rx="2" ry="2" fill="#9be9a8"><title>2025-07-02: 1</title></rect>
<rect x="58" y="74" width="11" height="11" rx="2" ry="2" fill="#9be9a8"><title>2025-07-03: 2</title></rect>
<rect x="58" y="88" width="11" height="11" rx="2" ry="2" fill="#9be9a8"><title>2025-07-04: 1</title></rect>
<rect x="58" y="102" width="11" height="11" rx="2" ry="2" fill="#ebedf0"><title>2025-07-05: 0</title></rect>
<rect x="72" y="18" width="11" height="11" rx="2" ry="2" fill="#ebedf0"><title>2025-07-06: 0</title></rect>
<rect x="72" y="32" width="11" height="11" rx="2" ry="2" fill="#9be9a8"><title>2025-07-07: 1</title></rect>
<rect x="72" y="46" width="11" height="11" rx="2" ry="2" fill="#9be9a8"><title>2025-07-08: 1</title></rect>
<rect x="72" y="60" width="11" height="11" rx="2" ry="2" fill="#9be9a8"><title>2025-07-09: 5</title></rect>
<rect x="72" y="74" width="11" height="11" rx="2" ry="2" fill="#ebedf0"><title>2025-07-10: 0</title></rect>
<rect x="72" y="88" width="11" height="11" rx="2" ry="2" fill="#ebedf0"><title>2025-07-11: 0</title></rect>
<rect x="72" y="102" width="11" height="11" rx="2" ry="2" fill="#ebedf0"><title>2025-07-12: 0</title></rect>
<rect x="86" y="18" width="11" height="11" rx="2" ry="2" fill="#ebedf0"><title>2025-07-13: 0</title></rect>
<rect x="86" y="32" width="11" height="11" rx="2" ry="2" fill="#9be9a8"><title>2025-07-14: 2</title></rect>
<rect x="86" y="46" width="11" height="11" rx="2" ry="2" fill="#ebedf0"><title>2025-07-15: 0</title></rect>
<rect x="86" y="60" width="11" height="11" rx="2" ry="2" fill="#ebedf0"><title>2025-07-16: 0</title></rect>
<rect x="86" y="74" width="11" height="11" rx="2" ry="2" fill="#ebedf0"><title>2025-07-17: 0</title></rect>
<rect x="86" y="88" width="11" height="11" rx="2" ry="2" fill="#ebedf0"><title>2025-07-18: 0</title></rect>
<rect x="86" y="102" width="11" height="11" rx="2" ry="2" fill="#ebedf0"><title>2025-07-19: 0</title></rect>
<rect x="100" y="18" width="11" height="11" rx="2" ry="2" fill="#9be9a8"><title>2025-07-20: 1</title></rect>
<rect x="100" y="32" width="11" height="11" rx="2" ry="2" fill="#9be9a8"><title>2025-07-21: 1</title></rect>
<rect x="100" y="46" width="11" height="11" rx="2" ry="2" fill="#ebedf0"><title>2025-07-22: 0</title></rect>
<rect x="100" y="60" width="11" height="11" rx="2" ry="2" fill="#ebedf0"><title>2025-07-23: 0</title></rect>
<rect x="100" y="74" width="11" height="11" rx="2" ry="2" fill="#9be9a8"><title>2025-07-24: 1</title></rect>
<rect x="100" y="88" width="11" height="11" rx="2" ry="2" fill="#ebedf0"><title>2025-07-25: 0</title></rect>
<rect x="100" y="102" width="11" height="11" rx="2" ry="2" fill="#ebedf0"><title>2025-07-26: 0</title></rect>
<rect x="114" y="18" width="11" height="11" rx="2" ry="2" fill="#9be9a8"><title>2025-07-27: 1</title></rect>
<rect x="114" y="32" width="11" height="11" rx="2" ry="2" fill="#ebedf0"><title>2025-07-28: 0</title></rect>
<rect x="114" y="46" width="11" height="11" rx="2" ry="2" fill="#9be9a8"><title>2025-07-29: 1</title></rect>
<rect x="114" y="60" width="11" height="11" rx="2" ry="2" fill="#ebedf0"><title>2025-07-30: 0</title></rect>
<rect x="114" y="74" width="11" height="11" rx="2" ry="2" fill="#ebedf0"><title>2025-07-31: 0</title></rect>
<rect x="114" y="88" width="11" height="11" rx="2" ry="2" fill="#ebedf0"><title>2025-08-01: 0</title></rect>
<rect x="114" y="102" width="11" height="11" rx="2" ry="2" fill="#ebedf0"><title>2025-08-02: 0</title></rect>
<rect x="128" y="18" width="11" height="11" rx="2" ry="2" fill="#ebedf0"><title>2025-08-03: 0</title></rect>
<rect x="128" y="32" width="11" height="11" rx="2" ry="2" fill="#9be9a8"><title>2025-08-04: 4</title></rect>
<rect x="128" y="46" width="11" height="11" rx="2" ry="2" fill="#9be9a8"><title>2025-08-05: 3</title></rect>
<rect x="128" y="60" width="11" height="11" rx="2" ry="2" fill="#9be9a8"><title>2025-08-06: 7</title></rect>
<rect x="128" y="74" width="11" height="11" rx="2" ry="2" fill="#9be9a8"><title>2025-08-07: 3</title></rect>
<rect x="128" y="88" width="11" height="11" rx="2" ry="2" fill="#9be9a8"><title>2025-08-08: 2</title></rect>
<rect x="128" y="102" width="11" height="11" rx="2" ry="2" fill="#9be9a8"><title>2025-08-09: 2</title></rect>
<rect x="142" y="18" width="11" height="11" rx="2" ry="2" fill="#ebedf0"><title>2025-08-10: 0</title></rect>
<rect x="142" y="32" width="11" height="11" rx="2" ry="2" fill="#9be9a8"><title>2025-08-11: 1</title></rect>
<rect x="142" y="46" width="11" height="11" rx="2" ry="2" fill="#ebedf0"><title>2025-08-12: 0</title></rect>
<rect x="142" y="60" width="11" height="11" rx="2" ry="2" fill="#9be9a8"><title>2025-08-13: 1</title></rect>
<rect x="142" y="74" width="11" height="11" rx="2" ry="2" fill="#ebedf0"><title>2025-08-14: 0</title></rect>
<rect x="142" y="88" width="11" height="11" rx="2" ry="2" fill="#ebedf0"><title>2025-08-15: 0</title></rect>
<rect x="142" y="102" width="11" height="11" rx="2" ry="2" fill="#ebedf0"><title>2025-08-16: 0</title></rect>
<rect x="156" y="18" width="11" height="11" rx="2" ry="2" fill="#ebedf0"><title>2025-08-17: 0</title></rect>
<rect x="156" y="32" width="11" height="11" rx="2" ry="2" fill="#ebedf0"><title>2025-08-18: 0</title></rect>
<rect x="156" y="46" width="11" height="11" rx="2" ry="2" fill="#9be9a8"><title>2025-08-19: 3</title></rect>
<rect x="156" y="60" width="11" height="11" rx="2" ry="2" fill="#ebedf0"><title>2025-08-20: 0</title></rect>
<rect x="156" y="74" width="11" height="11" rx="2" ry="2" fill="#ebedf0"><title>2025-08-21: 0</title></rect>
<rect x="156" y="88" width="11" height="11" rx="2" ry="2" fill="#ebedf0"><title>2025-08-22: 0</title></rect>
<rect x="156" y="102" width="11" height="11" rx="2" ry="2" fill="#ebedf0"><title>2025-08-23: 0</title></rect>
<rect x="170" y="18" width="11" height="11" rx="2" ry="2" fill="#ebedf0"><title>2025-08-24: 0</title></rect>
<rect x="170" y="32" width="11" height="11" rx="2" ry="2" fill="#9be9a8"><title>2025-08-25: 1</title></rect>
<rect x="170" y="46" width="11" height="11" rx="2" ry="2" fill="#ebedf0"><title>2025-08-26: 0</title></rect>
<rect x="170" y="60" width="11" height="11" rx="2" ry="2" fill="#ebedf0"><title>2025-08-27: 0</title></rect>
<rect x="170" y="74" width="11" height="11" rx="2" ry="2" fill="#ebedf0"><title>2025-08-28: 0</title></rect>
<rect x="170" y="88" width="11" height="11" rx="2" ry="2" fill="#ebedf0"><title>2025-08-29: 0</title></rect>
<rect x="170" y="102" width="11" height="11" rx="2" ry="2" fill="#ebedf0"><title>2025-08-30: 0</title></rect>
<rect x="184" y="18" width="11" height="11" rx="2" ry="2" fill="#ebedf0"><title>2025-08-31: 0</title></rect>
<rect x="184" y="32" width="11" height="11" rx="2" ry="2" fill="#ebedf0"><title>2025-09-01: 0</title></rect>
<rect x="184" y="46" width="11" height="11" rx="2" ry="2" fill="#ebedf0"><title>2025-09-02: 0</title></rect>
<rect x="184" y="60" width="11" height="11" rx="2" ry="2" fill="#ebedf0"><title>2025-09-03: 0</title></rect>
<rect x="184" y="74" width="11" height="11" rx="2" ry="2" fill="#ebedf0"><title>2025-09-04: 0</title></rect>
<rect x="184" y="88" width="11" height="11" rx="2" ry="2" fill="#9be9a8"><title>2025-09-05: 3</title></rect>
<rect x="184" y="102" width="11" height="11" rx="2" ry="2" fill="#ebedf0"><title>2025-09-06: 0</title></rect>
<rect x="198" y="18" width="11" height="11" rx="2" ry="2" fill="#ebedf0"><title>2025-09-07: 0</title></rect>
<rect x="198" y="32" width="11" height="11" rx="2" ry="2" fill="#9be9a8"><title>2025-09-08: 8</title></rect>
<rect x="198" y="46" width="11" height="11" rx="2" ry="2" fill="#ebedf0"><title>2025-09-09: 0</title></rect>
<rect x="198" y="60" width="11" height="11" rx="2" ry="2" fill="#ebedf0"><title>2025-09-10: 0</title></rect>
<rect x="198" y="74" width="11" height="11" rx="2" ry="2" fill="#ebedf0"><title>2025-09-11: 0</title></rect>
<rect x="198" y="88" width="11" height="11" rx="2" ry="2" fill="#ebedf0"><title>2025-09-12: 0</title></rect>
<rect x="198" y="102" width="11" height="11" rx="2" ry="2" fill="#ebedf0"><title>2025-09-13: 0</title></rect>
<rect x="212" y="18" width="11" height="11" rx="2" ry="2" fill="#ebedf0"><title>2025-09-14: 0</title></rect>
<rect x="212" y="32" width="11" height="11" rx="2" ry="2" fill="#ebedf0"><title>2025-09-15: 0</title></rect>
<rect x="212" y="46" width="11" height="11" rx="2" ry="2" fill="#ebedf0"><title>2025-09-16: 0</title></rect>
<rect x="212" y="60" width="11" height="11" rx="2" ry="2" fill="#ebedf0"><title>2025-09-17: 0</title></rect>
<rect x="212" y="74" width="11" height="11" rx="2" ry="2" fill="#ebedf0"><title>2025-09-18: 0</title></rect>
<rect x="212" y="88" width="11" height="11" rx="2" ry="2" fill="#ebedf0"><title>2025-09-19: 0</title></rect>
<rect x="212" y="102" width="11" height="11" rx="2" ry="2" fill="#ebedf0"><title>2025-09-20: 0</title></rect>
<rect x="226" y="18" width="11" height="11" rx="2" ry="2" fill="#ebedf0"><title>2025-09-21: 0</title></rect>
<rect x="226" y="32" width="11" height="11" rx="2" ry="2" fill="#9be9a8"><title>2025-09-22: 3</title></rect>
<rect x="226" y="46" width="11" height="11" rx="2" ry="2" fill="#9be9a8"><title>2025-09-23: 2</title></rect>
<rect x="226" y="60" width="11" height="11" rx="2" ry="2" fill="#ebedf0"><title>2025-09-24: 0</title></rect>
<rect x="226" y="74" width="11" height="11" rx="2" ry="2" fill="#ebedf0"><title>2025-09-25: 0</title></rect>
<rect x="226" y="88" width="11" height="11" rx="2" ry="2" fill="#ebedf0"><title>2025-09-26: 0</title></rect>
<rect x="226" y="102" width="11" height="11" rx="2" ry="2" fill="#9be9a8"><title>2025-09-27: 1</title></rect>
<rect x="240" y="18" width="11" height="11" rx="2" ry="2" fill="#ebedf0"><title>2025-09-28: 0</title></rect>
<rect x="240" y="32" width="11" height="11" rx="2" ry="2" fill="#ebedf0"><title>2025-09-29: 0</title></rect>
<rect x="240" y="46" width="11" height="11" rx="2" ry="2" fill="#ebedf0"><title>2025-09-30: 0</title></rect>
<rect x="240" y="60" width="11" height="11" rx="2" ry="2" fill="#ebedf0"><title>2025-10-01: 0</title></rect>
<rect x="240" y="74" width="11" height="11" rx="2" ry="2" fill="#ebedf0"><title>2025-10-02: 0</title></rect>
<rect x="240" y="88" width="11" height="11" rx="2" ry="2" fill="#9be9a8"><title>2025-10-03: 1</title></rect>
<rect x="240" y="102" width="11" height="11" rx="2" ry="2" fill="#ebedf0"><title>2025-10-04: 0</title></rect>
<rect x="254" y="18" width="11" height="11" rx="2" ry="2" fill="#9be9a8"><title>2025-10-05: 3</title></rect>
<rect x="254" y="32" width="11" height="11" rx="2" ry="2" fill="#ebedf0"><title>2025-10-06: 0</title></rect>
<rect x="254" y="46" width="11" height="11" rx="2" ry="2" fill="#ebedf0"><title>2025-10-07: 0</title></rect>
<rect x="254" y="60" width="11" height="11" rx="2" ry="2" fill="#9be9a8"><title>2025-10-08: 1</title></rect>
<rect x="254" y="74" width="11" height="11" rx="2" ry="2" fill="#9be9a8"><title>2025-10-09: 3</title></rect>
<rect x="254" y="88" width="11" height="11" rx="2" ry="2" fill="#9be9a8"><title>2025-10-10: 2</title></rect>
<rect x="254" y="102" width="11" height="11" rx="2" ry="2" fill="#9be9a8"><title>2025-10-11: 1</title></rect>
<rect x="268" y="18" width="11" height="11" rx="2" ry="2" fill="#ebedf0"><title>2025-10-12: 0</title></rect>
<rect x="268" y="32" width="11" height="11" rx="2" ry="2" fill="#40c463"><title>2025-10-13: 11</title></rect>
<rect x="268" y="46" width="11" height="11" rx="2" ry="2" fill="#ebedf0"><title>2025-10-14: 0</title></rect>
<rect x="268" y="60" width="11" height="11" rx="2" ry="2" fill="#9be9a8"><title>2025-10-15: 2</title></rect>
<rect x="268" y="74" width="11" height="11" rx="2" ry="2" fill="#ebedf0"><title>2025-10-16: 0</title></rect>
<rect x="268" y="88" width="11" height="11" rx="2" ry="2" fill="#ebedf0"><title>2025-10-17: 0</title></rect>
<rect x="268" y="102" width="11" height="11" rx="2" ry="2" fill="#ebedf0"><title>2025-10-18: 0</title></rect>
<rect x="282" y="18" width="11" height="11" rx="2" ry="2" fill="#ebedf0"><title>2025-10-19: 0</title></rect>
<rect x="282" y="32" width="11" height="11" rx="2" ry="2" fill="#9be9a8"><title>2025-10-20: 2</title></rect>
<rect x="282" y="46" width="11" height="11" rx="2" ry="2" fill="#ebedf0"><title>2025-10-21: 0</title></rect>
<rect x="282" y="60" width="11" height="11" rx="2" ry="2" fill="#ebedf0"><title>2025-10-22: 0</title></rect>
<rect x="282" y="74" width="11" height="11" rx="2" ry="2" fill="#ebedf0"><title>2025-10-23: 0</title></rect>
<rect x="282" y="88" width="11" height="11" rx="2" ry="2" fill="#ebedf0"><title>2025-10-24: 0</title></rect>
<rect x="282" y="102" width="11" height="11" rx="2" ry="2" fill="#ebedf0"><title>2025-10-25: 0</title></rect>
<rect x="296" y="18" width="11" height="11" rx="2" ry="2" fill="#ebedf0"><title>2025-10-26: 0</title></rect>
<rect x="296" y="32" width="11" height="11" rx="2" ry="2" fill="#ebedf0"><title>2025-10-27: 0</title></rect>
<rect x="296" y="46" width="11" height="11" rx="2" ry="2" fill="#ebedf0"><title>2025-10-28: 0</title></rect>
<rect x="296" y="60" width="11" height="11" rx="2" ry="2" fill="#ebedf0"><title>2025-10-29: 0</title></rect>
<rect x="296" y="74" width="11" height="11" rx="2" ry="2" fill="#ebedf0"><title>2025-10-30: 0</title></rect>
<rect x="296" y="88" width="11" height="11" rx="2" ry="2" fill="#ebedf0"><title>2025-10-31: 0</title></rect>
<rect x="296" y="102" width="11" height="11" rx="2" ry="2" fill="#ebedf0"><title>2025-11-01: 0</title></rect>
<rect x="310" y="18" width="11" height="11" rx="2" ry="2" fill="#ebedf0"><title>2025-11-02: 0</title></rect>
<rect x="310" y="32" width="11" height="11" rx="2" ry="2" fill="#ebedf0"><title>2025-11-03: 0</title></rect>
<rect x="310" y="46" width="11" height="11" rx="2" ry="2" fill="#ebedf0"><title>2025-11-04: 0</title></rect>
<rect x="310" y="60" width="11" height="11" rx="2" ry="2" fill="#ebedf0"><title>2025-11-05: 0</title></rect>
<rect x="310" y="74" width="11" height="11" rx="2" ry="2" fill="#ebedf0"><title>2025-11-06: 0</title></rect>
<rect x="310" y="88" width="11" height="11" rx="2" ry="2" fill="#ebedf0"><title>2025-11-07: 0</title></rect>
<rect x="310" y="102" width="11" height="11" rx="2" ry="2" fill="#ebedf0"><title>2025-11-08: 0</title></rect>
<rect x="324" y="18" width="11" height="11" rx="2" ry="2" fill="#ebedf0"><title>2025-11-09: 0</title></rect>
<rect x="324" y="32" width="11" height="11" rx="2" ry="2" fill="#ebedf0"><title>2025-11-10: 0</title></rect>
<rect x="324" y="46" width="11" height="11" rx="2" ry="2" fill="#ebedf0"><title>2025-11-11: 0</title></rect>
<rect x="324" y="60" width="11" height="11" rx="2" ry="2" fill="#ebedf0"><title>2025-11-12: 0</title></rect>
<rect x="324" y="74" width="11" height="11" rx="2" ry="2" fill="#ebedf0"><title>2025-11-13: 0</title></rect>
<rect x="324" y="88" width="11" height="11" rx="2" ry="2" fill="#ebedf0"><title>2025-11-14: 0</title></rect>
<rect x="324" y="102" width="11" height="11" rx="2" ry="2" fill="#ebedf0"><title>2025-11-15: 0</title></rect>
<rect x="338" y="18" width="11" height="11" rx="2" ry="2" fill="#ebedf0"><title>2025-11-16: 0</title></rect>
<rect x="338" y="32" width="11" height="11" rx="2" ry="2" fill="#ebedf0"><title>2025-11-17: 0</title></rect>
<rect x="338" y="46" width="11" height="11" rx="2" ry="2" fill="#ebedf0"><title>2025-11-18: 0</title></rect>
<rect x="338" y="60" width="11" height="11" rx="2" ry="2" fill="#ebedf0"><title>2025-11-19: 0</title></rect>
<rect x="338" y="74" width="11" height="11" rx="2" ry="2" fill="#9be9a8"><title>2025-11-20: 2</title></rect>
<rect x="338" y="88" width="11" height="11" rx="2" ry="2" fill="#ebedf0"><title>2025-11-21: 0</title></rect>
<rect x="338" y="102" width="11" height="11" rx="2" ry="2" fill="#ebedf0"><title>2025-11-22: 0</title></rect>
<rect x="352" y="18" width="11" height="11" rx="2" ry="2" fill="#ebedf0"><title>2025-11-23: 0</title></rect>
<rect x="352" y="32" width="11" height="11" rx="2" ry="2" fill="#9be9a8"><title>2025-11-24: 3</title></rect>
<rect x="352" y="46" width="11" height="11" rx="2" ry="2" fill="#ebedf0"><title>2025-11-25: 0</title></rect>
<rect x="352" y="60" width="11" height="11" rx="2" ry="2" fill="#ebedf0"><title>2025-11-26: 0</title></rect>
<rect x="352" y="74" width="11" height="11" rx="2" ry="2" fill="#ebedf0"><title>2025-11-27: 0</title></rect>
<rect x="352" y="88" width="11" height="11" rx="2" ry="2" fill="#ebedf0"><title>2025-11-28: 0</title></rect>
<rect x="352" y="102" width="11" height="11" rx="2" ry="2" fill="#9be9a8"><title>2025-11-29: 1</title></rect>
<rect x="366" y="18" width="11" height="11" rx="2" ry="2" fill="#ebedf0"><title>2025-11-30: 0</title></rect>
<rect x="366" y="32" width="11" height="11" rx="2" ry="2" fill="#ebedf0"><title>2025-12-01: 0</title></rect>
<rect x="366" y="46" width="11" height="11" rx="2" ry="2" fill="#9be9a8"><title>2025-12-02: 1</title></rect>
<rect x="366" y="60" width="11" height="11" rx="2" ry="2" fill="#ebedf0"><title>2025-12-03: 0</title></rect>
<rect x="366" y="74" width="11" height="11" rx="2" ry="2" fill="#ebedf0"><title>2025-12-04: 0</title></rect>
<rect x="366" y="88" width="11" height="11" rx="2" ry="2" fill="#9be9a8"><title>2025-12-05: 2</title></rect>
<rect x="366" y="102" width="11" height="11" rx="2" ry="2" fill="#ebedf0"><title>2025-12-06: 0</title></rect>
<rect x="380" y="18" width="11" height="11" rx="2" ry="2" fill="#ebedf0"><title>2025-12-07: 0</title></rect>
<rect x="380" y="32" width="11" height="11" rx="2" ry="2" fill="#ebedf0"><title>2025-12-08: 0</title></rect>
<rect x="380" y="46" width="11" height="11" rx="2" ry="2" fill="#ebedf0"><title>2025-12-09: 0</title></rect>
<rect x="380" y="60" width="11" height="11" rx="2" ry="2" fill="#ebedf0"><title>2025-12-10: 0</title></rect>
<rect x="380" y="74" width="11" height="11" rx="2" ry="2" fill="#ebedf0"><title>2025-12-11: 0</title></rect>
<rect x="380" y="88" width="11" height="11" rx="2" ry="2" fill="#ebedf0"><title>2025-12-12: 0</title></rect>
<rect x="380" y="102" width="11" height="11" rx="2" ry="2" fill="#ebedf0"><title>2025-12-13: 0</title></rect>
<rect x="394" y="18" width="11" height="11" rx="2" ry="2" fill="#ebedf0"><title>2025-12-14: 0</title></rect>
<rect x="394" y="32" width="11" height="11" rx="2" ry="2" fill="#ebedf0"><title>2025-12-15: 0</title></rect>
<rect x="394" y="46" width="11" height="11" rx="2" ry="2" fill="#ebedf0"><title>2025-12-16: 0</title></rect>
<rect x="394" y="60" width="11" height="11" rx="2" ry="2" fill="#ebedf0"><title>2025-12-17: 0</title></rect>
<rect x="394" y="74" width="11" height="11" rx="2" ry="2" fill="#ebedf0"><title>2025-12-18: 0</title></rect>
<rect x="394" y="88" width="11" height="11" rx="2" ry="2" fill="#ebedf0"><title>2025-12-19: 0</title></rect>
<rect x="394" y="102" width="11" height="11" rx="2" ry="2" fill="#9be9a8"><title>2025-12-20: 5</title></rect>
<rect x="408" y="18" width="11" height="11" rx="2" ry="2" fill="#9be9a8"><title>2025-12-21: 1</title></rect>
<rect x="408" y="32" width="11" height="11" rx="2" ry="2" fill="#ebedf0"><title>2025-12-22: 0</title></rect>
<rect x="408" y="46" width="11" height="11" rx="2" ry="2" fill="#ebedf0"><title>2025-12-23: 0</title></rect>
<rect x="408" y="60" width="11" height="11" rx="2" ry="2" fill="#ebedf0"><title>2025-12-24: 0</title></rect>
<rect x="408" y="74" width="11" height="11" rx="2" ry="2" fill="#ebedf0"><title>2025-12-25: 0</title></rect>
<rect x="408" y="88" width="11" height="11" rx="2" ry="2" fill="#ebedf0"><title>2025-12-26: 0</title></rect>
<rect x="408" y="102" width="11" height="11" rx="2" ry="2" fill="#ebedf0"><title>2025-12-27: 0</title></rect>
<rect x="422" y="18" width="11" height="11" rx="2" ry="2" fill="#ebedf0"><title>2025-12-28: 0</title></rect>
<rect x="422" y="32" width="11" height="11" rx="2" ry="2" fill="#ebedf0"><title>2025-12-29: 0</title></rect>
<rect x="422" y="46" width="11" height="11" rx="2" ry="2" fill="#ebedf0"><title>2025-12-30: 0</title></rect>
<rect x="422" y="60" width="11" height="11" rx="2" ry="2" fill="#ebedf0"><title>2025-12-31: 0</title></rect>
<rect x="422" y="74" width="11" height="11" rx="2" ry="2" fill="#ebedf0"><title>2026-01-01: 0</title></rect>
<rect x="422" y="88" width="11" height="11" rx="2" ry="2" fill="#ebedf0"><title>2026-01-02: 0</title></rect>
<rect x="422" y="102" width="11" height="11" rx="2" ry="2" fill="#ebedf0"><title>2026-01-03: 0</title></rect>
<rect x="436" y="18" width="11" height="11" rx="2" ry="2" fill="#ebedf0"><title>2026-01-04: 0</title></rect>
<rect x="436" y="32" width="11" height="11" rx="2" ry="2" fill="#ebedf0"><title>2026-01-05: 0</title></rect>
<rect x="436" y="46" width="11" height="11" rx="2" ry="2" fill="#ebedf0"><title>2026-01-06: 0</title></rect>
<rect x="436" y="60" width="11" height="11" rx="2" ry="2" fill="#ebedf0"><title>2026-01-07: 0</title></rect>
<rect x="436" y="74" width="11" height="11" rx="2" ry="2" fill="#ebedf0"><title>2026-01-08: 0</title></rect>
<rect x="436" y="88" width="11" height="11" rx="2" ry="2" fill="#ebedf0"><title>2026-01-09: 0</title></rect>
<rect x="436" y="102" width="11" height="11" rx="2" ry="2" fill="#ebedf0"><title>2026-01-10: 0</title></rect>
<rect x="450" y="18" width="11" height="11" rx="2" ry="2" fill="#ebedf0"><title>2026-01-11: 0</title></rect>
<rect x="450" y="32" width="11" height="11" rx="2" ry="2" fill="#216e39"><title>2026-01-12: 44</title></rect>
<rect x="450" y="46" width="11" height="11" rx="2" ry="2" fill="#ebedf0"><title>2026-01-13: 0</title></rect>
<rect x="450" y="60" width="11" height="11" rx="2" ry="2" fill="#ebedf0"><title>2026-01-14: 0</title></rect>
<rect x="450" y="74" width="11" height="11" rx="2" ry="2" fill="#ebedf0"><title>2026-01-15: 0</title></rect>
<rect x="450" y="88" width="11" height="11" rx="2" ry="2" fill="#ebedf0"><title>2026-01-16: 0</title></rect>
<rect x="450" y="102" width="11" height="11" rx="2" ry="2" fill="#ebedf0"><title>2026-01-17: 0</title></rect>
<rect x="464" y="18" width="11" height="11" rx="2" ry="2" fill="#ebedf0"><title>2026-01-18: 0</title></rect>
<rect x="464" y="32" width="11" height="11" rx="2" ry="2" fill="#9be9a8"><title>2026-01-19: 1</title></rect>
<rect x="464" y="46" width="11" height="11" rx="2" ry="2" fill="#9be9a8"><title>2026-01-20: 1</title></rect>
<rect x="464" y="60" width="11" height="11" rx="2" ry="2" fill="#ebedf0"><title>2026-01-21: 0</title></rect>
<rect x="464" y="74" width="11" height="11" rx="2" ry="2" fill="#ebedf0"><title>2026-01-22: 0</title></rect>
<rect x="464" y="88" width="11" height="11" rx="2" ry="2" fill="#ebedf0"><title>2026-01-23: 0</title></rect>
<rect x="464" y="102" width="11" height="11" rx="2" ry="2" fill="#ebedf0"><title>2026-01-24: 0</title></rect>
<rect x="478" y="18" width="11" height="11" rx="2" ry="2" fill="#ebedf0"><title>2026-01-25: 0</title></rect>
<rect x="478" y="32" width="11" height="11" rx="2" ry="2" fill="#ebedf0"><title>2026-01-26: 0</title></rect>
<rect x="478" y="46" width="11" height="11" rx="2" ry="2" fill="#9be9a8"><title>2026-01-27: 1</title></rect>
<rect x="478" y="60" width="11" height="11" rx="2" ry="2" fill="#ebedf0"><title>2026-01-28: 0</title></rect>
<rect x="478" y="74" width="11" height="11" rx="2" ry="2" fill="#9be9a8"><title>2026-01-29: 5</title></rect>
<rect x="478" y="88" width="11" height="11" rx="2" ry="2" fill="#ebedf0"><title>2026-01-30: 0</title></rect>
<rect x="478" y="102" width="11" height="11" rx="2" ry="2" fill="#9be9a8"><title>2026-01-31: 4</title></rect>
<rect x="492" y="18" width="11" height="11" rx="2" ry="2" fill="#9be9a8"><title>2026-02-01: 3</title></rect>
<rect x="492" y="32" width="11" height="11" rx="2" ry="2" fill="#9be9a8"><title>2026-02-02: 9</title></rect>
<rect x="492" y="46" width="11" height="11" rx="2" ry="2" fill="#9be9a8"><title>2026-02-03: 3</title></rect>
<rect x="492" y="60" width="11" height="11" rx="2" ry="2" fill="#ebedf0"><title>2026-02-04: 0</title></rect>
<rect x="492" y="74" width="11" height="11" rx="2" ry="2" fill="#216e39"><title>2026-02-05: 42</title></rect>
<rect x="492" y="88" width="11" height="11" rx="2" ry="2" fill="#40c463"><title>2026-02-06: 10</title></rect>
<rect x="492" y="102" width="11" height="11" rx="2" ry="2" fill="#40c463"><title>2026-02-07: 11</title></rect>
<rect x="506" y="18" width="11" height="11" rx="2" ry="2" fill="#40c463"><title>2026-02-08: 10</title></rect>
<rect x="506" y="32" width="11" height="11" rx="2" ry="2" fill="#9be9a8"><title>2026-02-09: 8</title></rect>
<rect x="506" y="46" width="11" height="11" rx="2" ry="2" fill="#40c463"><title>2026-02-10: 12</title></rect>
<rect x="506" y="60" width="11" height="11" rx="2" ry="2" fill="#9be9a8"><title>2026-02-11: 7</title></rect>
<rect x="506" y="74" width="11" height="11" rx="2" ry="2" fill="#ebedf0"><title>2026-02-12: 0</title></rect>
<rect x="506" y="88" width="11" height="11" rx="2" ry="2" fill="#ebedf0"><title>2026-02-13: 0</title></rect>
<rect x="506" y="102" width="11" height="11" rx="2" ry="2" fill="#ebedf0"><title>2026-02-14: 0</title></rect>
<rect x="520" y="18" width="11" height="11" rx="2" ry="2" fill="#9be9a8"><title>2026-02-15: 6</title></rect>
<rect x="520" y="32" width="11" height="11" rx="2" ry="2" fill="#9be9a8"><title>2026-02-16: 4</title></rect>
<rect x="520" y="46" width="11" height="11" rx="2" ry="2" fill="#ebedf0"><title>2026-02-17: 0</title></rect>
<rect x="520" y="60" width="11" height="11" rx="2" ry="2" fill="#ebedf0"><title>2026-02-18: 0</title></rect>
<rect x="520" y="74" width="11" height="11" rx="2" ry="2" fill="#ebedf0"><title>2026-02-19: 0</title></rect>
<rect x="520" y="88" width="11" height="11" rx="2" ry="2" fill="#ebedf0"><title>2026-02-20: 0</title></rect>
<rect x="520" y="102" width="11" height="11" rx="2" ry="2" fill="#ebedf0"><title>2026-02-21: 0</title></rect>
<rect x="534" y="18" width="11" height="11" rx="2" ry="2" fill="#ebedf0"><title>2026-02-22: 0</title></rect>
<rect x="534" y="32" width="11" height="11" rx="2" ry="2" fill="#ebedf0"><title>2026-02-23: 0</title></rect>
<rect x="534" y="46" width="11" height="11" rx="2" ry="2" fill="#ebedf0"><title>2026-02-24: 0</title></rect>
<rect x="534" y="60" width="11" height="11" rx="2" ry="2" fill="#ebedf0"><title>2026-02-25: 0</title></rect>
<rect x="534" y="74" width="11" height="11" rx="2" ry="2" fill="#9be9a8"><title>2026-02-26: 8</title></rect>
<rect x="534" y="88" width="11" height="11" rx="2" ry="2" fill="#9be9a8"><title>2026-02-27: 8</title></rect>
<rect x="534" y="102" width="11" height="11" rx="2" ry="2" fill="#9be9a8"><title>2026-02-28: 6</title></rect>
<rect x="548" y="18" width="11" height="11" rx="2" ry="2" fill="#9be9a8"><title>2026-03-01: 9</title></rect>
<rect x="548" y="32" width="11" height="11" rx="2" ry="2" fill="#9be9a8"><title>2026-03-02: 2</title></rect>
<rect x="548" y="46" width="11" height="11" rx="2" ry="2" fill="#ebedf0"><title>2026-03-03: 0</title></rect>
<rect x="548" y="60" width="11" height="11" rx="2" ry="2" fill="#ebedf0"><title>2026-03-04: 0</title></rect>
<rect x="548" y="74" width="11" height="11" rx="2" ry="2" fill="#9be9a8"><title>2026-03-05: 3</title></rect>
<rect x="548" y="88" width="11" height="11" rx="2" ry="2" fill="#9be9a8"><title>2026-03-06: 3</title></rect>
<rect x="548" y="102" width="11" height="11" rx="2" ry="2" fill="#9be9a8"><title>2026-03-07: 9</title></rect>
<rect x="562" y="18" width="11" height="11" rx="2" ry="2" fill="#216e39"><title>2026-03-08: 38</title></rect>
<rect x="562" y="32" width="11" height="11" rx="2" ry="2" fill="#40c463"><title>2026-03-09: 18</title></rect>
<rect x="562" y="46" width="11" height="11" rx="2" ry="2" fill="#9be9a8"><title>2026-03-10: 7</title></rect>
<rect x="562" y="60" width="11" height="11" rx="2" ry="2" fill="#ebedf0"><title>2026-03-11: 0</title></rect>
<rect x="562" y="74" width="11" height="11" rx="2" ry="2" fill="#9be9a8"><title>2026-03-12: 9</title></rect>
<rect x="562" y="88" width="11" height="11" rx="2" ry="2" fill="#9be9a8"><title>2026-03-13: 4</title></rect>
<rect x="562" y="102" width="11" height="11" rx="2" ry="2" fill="#ebedf0"><title>2026-03-14: 0</title></rect>
<rect x="576" y="18" width="11" height="11" rx="2" ry="2" fill="#40c463"><title>2026-03-15: 15</title></rect>
<rect x="576" y="32" width="11" height="11" rx="2" ry="2" fill="#9be9a8"><title>2026-03-16: 1</title></rect>
<rect x="576" y="46" width="11" height="11" rx="2" ry="2" fill="#ebedf0"><title>2026-03-17: 0</title></rect>
<rect x="576" y="60" width="11" height="11" rx="2" ry="2" fill="#ebedf0"><title>2026-03-18: 0</title></rect>
<rect x="576" y="74" width="11" height="11" rx="2" ry="2" fill="#40c463"><title>2026-03-19: 11</title></rect>
<rect x="576" y="88" width="11" height="11" rx="2" ry="2" fill="#9be9a8"><title>2026-03-20: 2</title></rect>
<rect x="576" y="102" width="11" height="11" rx="2" ry="2" fill="#9be9a8"><title>2026-03-21: 9</title></rect>
<rect x="590" y="18" width="11" height="11" rx="2" ry="2" fill="#9be9a8"><title>2026-03-22: 2</title></rect>
<rect x="590" y="32" width="11" height="11" rx="2" ry="2" fill="#40c463"><title>2026-03-23: 11</title></rect>
<rect x="590" y="46" width="11" height="11" rx="2" ry="2" fill="#30a14e"><title>2026-03-24: 25</title></rect>
<rect x="590" y="60" width="11" height="11" rx="2" ry="2" fill="#9be9a8"><title>2026-03-25: 9</title></rect>
<rect x="590" y="74" width="11" height="11" rx="2" ry="2" fill="#40c463"><title>2026-03-26: 11</title></rect>
<rect x="590" y="88" width="11" height="11" rx="2" ry="2" fill="#9be9a8"><title>2026-03-27: 2</title></rect>
<rect x="590" y="102" width="11" height="11" rx="2" ry="2" fill="#9be9a8"><title>2026-03-28: 2</title></rect>
<rect x="604" y="18" width="11" height="11" rx="2" ry="2" fill="#9be9a8"><title>2026-03-29: 3</title></rect>
<rect x="604" y="32" width="11" height="11" rx="2" ry="2" fill="#30a14e"><title>2026-03-30: 20</title></rect>
<rect x="604" y="46" width="11" height="11" rx="2" ry="2" fill="#40c463"><title>2026-03-31: 14</title></rect>
<rect x="604" y="60" width="11" height="11" rx="2" ry="2" fill="#9be9a8"><title>2026-04-01: 6</title></rect>
<rect x="604" y="74" width="11" height="11" rx="2" ry="2" fill="#9be9a8"><title>2026-04-02: 2</title></rect>
<rect x="604" y="88" width="11" height="11" rx="2" ry="2" fill="#9be9a8"><title>2026-04-03: 1</title></rect>
<rect x="604" y="102" width="11" height="11" rx="2" ry="2" fill="#216e39"><title>2026-04-04: 30</title></rect>
<rect x="618" y="18" width="11" height="11" rx="2" ry="2" fill="#9be9a8"><title>2026-04-05: 5</title></rect>
<rect x="618" y="32" width="11" height="11" rx="2" ry="2" fill="#ebedf0"><title>2026-04-06: 0</title></rect>
<rect x="618" y="46" width="11" height="11" rx="2" ry="2" fill="#40c463"><title>2026-04-07: 11</title></rect>
<rect x="618" y="60" width="11" height="11" rx="2" ry="2" fill="#40c463"><title>2026-04-08: 15</title></rect>
<rect x="618" y="74" width="11" height="11" rx="2" ry="2" fill="#9be9a8"><title>2026-04-09: 6</title></rect>
<rect x="618" y="88" width="11" height="11" rx="2" ry="2" fill="#40c463"><title>2026-04-10: 10</title></rect>
<rect x="618" y="102" width="11" height="11" rx="2" ry="2" fill="#40c463"><title>2026-04-11: 17</title></rect>
<rect x="632" y="18" width="11" height="11" rx="2" ry="2" fill="#ebedf0"><title>2026-04-12: 0</title></rect>
<rect x="632" y="32" width="11" height="11" rx="2" ry="2" fill="#9be9a8"><title>2026-04-13: 5</title></rect>
<rect x="632" y="46" width="11" height="11" rx="2" ry="2" fill="#40c463"><title>2026-04-14: 10</title></rect>
<rect x="632" y="60" width="11" height="11" rx="2" ry="2" fill="#40c463"><title>2026-04-15: 16</title></rect>
<rect x="632" y="74" width="11" height="11" rx="2" ry="2" fill="#40c463"><title>2026-04-16: 19</title></rect>
<rect x="632" y="88" width="11" height="11" rx="2" ry="2" fill="#40c463"><title>2026-04-17: 14</title></rect>
<rect x="632" y="102" width="11" height="11" rx="2" ry="2" fill="#9be9a8"><title>2026-04-18: 1</title></rect>
<rect x="646" y="18" width="11" height="11" rx="2" ry="2" fill="#9be9a8"><title>2026-04-19: 5</title></rect>
<rect x="646" y="32" width="11" height="11" rx="2" ry="2" fill="#30a14e"><title>2026-04-20: 25</title></rect>
<rect x="646" y="46" width="11" height="11" rx="2" ry="2" fill="#9be9a8"><title>2026-04-21: 5</title></rect>
<rect x="646" y="60" width="11" height="11" rx="2" ry="2" fill="#9be9a8"><title>2026-04-22: 2</title></rect>
<rect x="646" y="74" width="11" height="11" rx="2" ry="2" fill="#9be9a8"><title>2026-04-23: 8</title></rect>
<rect x="646" y="88" width="11" height="11" rx="2" ry="2" fill="#9be9a8"><title>2026-04-24: 8</title></rect>
<rect x="646" y="102" width="11" height="11" rx="2" ry="2" fill="#9be9a8"><title>2026-04-25: 6</title></rect>
<rect x="660" y="18" width="11" height="11" rx="2" ry="2" fill="#ebedf0"><title>2026-04-26: 0</title></rect>
<rect x="660" y="32" width="11" height="11" rx="2" ry="2" fill="#9be9a8"><title>2026-04-27: 5</title></rect>
<rect x="660" y="46" width="11" height="11" rx="2" ry="2" fill="#40c463"><title>2026-04-28: 13</title></rect>
<rect x="660" y="60" width="11" height="11" rx="2" ry="2" fill="#40c463"><title>2026-04-29: 15</title></rect>
<rect x="660" y="74" width="11" height="11" rx="2" ry="2" fill="#9be9a8"><title>2026-04-30: 4</title></rect>
<rect x="660" y="88" width="11" height="11" rx="2" ry="2" fill="#ebedf0"><title>2026-05-01: 0</title></rect>
<rect x="660" y="102" width="11" height="11" rx="2" ry="2" fill="#9be9a8"><title>2026-05-02: 3</title></rect>
<rect x="674" y="18" width="11" height="11" rx="2" ry="2" fill="#9be9a8"><title>2026-05-03: 4</title></rect>
<rect x="674" y="32" width="11" height="11" rx="2" ry="2" fill="#ebedf0"><title>2026-05-04: 0</title></rect>
<rect x="674" y="46" width="11" height="11" rx="2" ry="2" fill="#ebedf0"><title>2026-05-05: 0</title></rect>
<rect x="674" y="60" width="11" height="11" rx="2" ry="2" fill="#40c463"><title>2026-05-06: 18</title></rect>
<rect x="674" y="74" width="11" height="11" rx="2" ry="2" fill="#40c463"><title>2026-05-07: 18</title></rect>
<rect x="674" y="88" width="11" height="11" rx="2" ry="2" fill="#40c463"><title>2026-05-08: 16</title></rect>
<rect x="674" y="102" width="11" height="11" rx="2" ry="2" fill="#9be9a8"><title>2026-05-09: 3</title></rect>
<rect x="688" y="18" width="11" height="11" rx="2" ry="2" fill="#ebedf0"><title>2026-05-10: 0</title></rect>
<rect x="688" y="32" width="11" height="11" rx="2" ry="2" fill="#40c463"><title>2026-05-11: 10</title></rect>
<rect x="688" y="46" width="11" height="11" rx="2" ry="2" fill="#40c463"><title>2026-05-12: 17</title></rect>
<rect x="688" y="60" width="11" height="11" rx="2" ry="2" fill="#9be9a8"><title>2026-05-13: 4</title></rect>
<rect x="688" y="74" width="11" height="11" rx="2" ry="2" fill="#9be9a8"><title>2026-05-14: 6</title></rect>
<rect x="688" y="88" width="11" height="11" rx="2" ry="2" fill="#9be9a8"><title>2026-05-15: 9</title></rect>
<rect x="688" y="102" width="11" height="11" rx="2" ry="2" fill="#ebedf0"><title>2026-05-16: 0</title></rect>
<rect x="702" y="18" width="11" height="11" rx="2" ry="2" fill="#ebedf0"><title>2026-05-17: 0</title></rect>
<rect x="702" y="32" width="11" height="11" rx="2" ry="2" fill="#9be9a8"><title>2026-05-18: 9</title></rect>
<rect x="702" y="46" width="11" height="11" rx="2" ry="2" fill="#40c463"><title>2026-05-19: 12</title></rect>
<rect x="702" y="60" width="11" height="11" rx="2" ry="2" fill="#40c463"><title>2026-05-20: 12</title></rect>
<rect x="702" y="74" width="11" height="11" rx="2" ry="2" fill="#9be9a8"><title>2026-05-21: 4</title></rect>
<rect x="702" y="88" width="11" height="11" rx="2" ry="2" fill="#9be9a8"><title>2026-05-22: 2</title></rect>
<rect x="702" y="102" width="11" height="11" rx="2" ry="2" fill="#ebedf0"><title>2026-05-23: 0</title></rect>
<rect x="716" y="18" width="11" height="11" rx="2" ry="2" fill="#ebedf0"><title>2026-05-24: 0</title></rect>
<rect x="716" y="32" width="11" height="11" rx="2" ry="2" fill="#40c463"><title>2026-05-25: 14</title></rect>
<rect x="716" y="46" width="11" height="11" rx="2" ry="2" fill="#40c463"><title>2026-05-26: 11</title></rect>
<rect x="716" y="60" width="11" height="11" rx="2" ry="2" fill="#40c463"><title>2026-05-27: 14</title></rect>
<rect x="716" y="74" width="11" height="11" rx="2" ry="2" fill="#40c463"><title>2026-05-28: 19</title></rect>
<rect x="716" y="88" width="11" height="11" rx="2" ry="2" fill="#9be9a8"><title>2026-05-29: 9</title></rect>
<rect x="716" y="102" width="11" height="11" rx="2" ry="2" fill="#ebedf0"><title>2026-05-30: 0</title></rect>
<rect x="730" y="18" width="11" height="11" rx="2" ry="2" fill="#9be9a8"><title>2026-05-31: 1</title></rect>
<rect x="730" y="32" width="11" height="11" rx="2" ry="2" fill="#40c463"><title>2026-06-01: 19</title></rect>
<rect x="730" y="46" width="11" height="11" rx="2" ry="2" fill="#40c463"><title>2026-06-02: 19</title></rect>
<rect x="730" y="60" width="11" height="11" rx="2" ry="2" fill="#40c463"><title>2026-06-03: 17</title></rect>
<rect x="730" y="74" width="11" height="11" rx="2" ry="2" fill="#40c463"><title>2026-06-04: 17</title></rect>
<rect x="730" y="88" width="11" height="11" rx="2" ry="2" fill="#30a14e"><title>2026-06-05: 26</title></rect>
<rect x="730" y="102" width="11" height="11" rx="2" ry="2" fill="#9be9a8"><title>2026-06-06: 5</title></rect>
<rect x="744" y="18" width="11" height="11" rx="2" ry="2" fill="#9be9a8"><title>2026-06-07: 3</title></rect>
<rect x="744" y="32" width="11" height="11" rx="2" ry="2" fill="#216e39"><title>2026-06-08: 32</title></rect>
<rect x="744" y="46" width="11" height="11" rx="2" ry="2" fill="#30a14e"><title>2026-06-09: 20</title></rect>
<rect x="744" y="60" width="11" height="11" rx="2" ry="2" fill="#216e39"><title>2026-06-10: 39</title></rect>
<rect x="744" y="74" width="11" height="11" rx="2" ry="2" fill="#30a14e"><title>2026-06-11: 20</title></rect>
<rect x="744" y="88" width="11" height="11" rx="2" ry="2" fill="#9be9a8"><title>2026-06-12: 5</title></rect>
<rect x="744" y="102" width="11" height="11" rx="2" ry="2" fill="#9be9a8"><title>2026-06-13: 2</title></rect>
<rect x="758" y="18" width="11" height="11" rx="2" ry="2" fill="#9be9a8"><title>2026-06-14: 2</title></rect>
<rect x="758" y="32" width="11" height="11" rx="2" ry="2" fill="#30a14e"><title>2026-06-15: 21</title></rect>
<rect x="758" y="46" width="11" height="11" rx="2" ry="2" fill="#ebedf0"><title>2026-06-16: 0</title></rect>
</svg>
